<?xml version="1.0" encoding="utf-8"?>
<svg version="1.1" id="Layer_1" x="0px" y="0px" viewBox="0 0 278 85" style="enable-background:new 0 0 368.5 48;"
     xmlns="http://www.w3.org/2000/svg">
    <path text="Cypress" fill="#00aa95" space="preserve" text-anchor="middle" offset="0.5" font-scale="contain"
          font-size="48" font-family="DM Sans" data-fl-textpath="" font-weight="700" font-style="normal"
          data-uid="o_f50i86bj4_5"
          d="M 113.608 54.074 C 110.383 54.074 107.613 53.38 105.3 51.992 C 102.994 50.611 101.216 48.681 99.968 46.203 C 98.719 43.719 98.095 40.851 98.095 37.601 C 98.095 34.343 98.719 31.469 99.968 28.979 C 101.216 26.482 102.994 24.534 105.3 23.133 C 107.613 21.733 110.383 21.032 113.608 21.032 C 117.442 21.032 120.582 21.983 123.028 23.884 C 125.481 25.785 127.011 28.456 127.62 31.897 L 121.184 31.897 C 120.785 30.161 119.939 28.798 118.646 27.81 C 117.354 26.821 115.643 26.327 113.513 26.327 C 110.567 26.327 108.257 27.331 106.584 29.34 C 104.911 31.349 104.074 34.103 104.074 37.601 C 104.074 41.099 104.911 43.843 106.584 45.832 C 108.257 47.829 110.567 48.827 113.513 48.827 C 115.643 48.827 117.354 48.361 118.646 47.429 C 119.939 46.504 120.785 45.221 121.184 43.58 L 127.62 43.58 C 127.011 46.862 125.481 49.432 123.028 51.289 C 120.582 53.145 117.442 54.074 113.608 54.074 Z M 141.665 63.56 L 135.467 63.56 L 140.715 52.021 L 139.346 52.021 L 130.534 30.89 L 136.874 30.89 L 143.224 46.812 L 149.84 30.89 L 156.038 30.89 L 141.665 63.56 Z M 165.71 63.56 L 159.874 63.56 L 159.874 30.89 L 165.074 30.89 L 165.71 34.131 C 166.446 33.13 167.412 32.249 168.61 31.488 C 169.814 30.728 171.373 30.348 173.286 30.348 C 175.416 30.348 177.317 30.864 178.99 31.897 C 180.663 32.93 181.987 34.343 182.963 36.137 C 183.933 37.93 184.417 39.967 184.417 42.249 C 184.417 44.53 183.933 46.561 182.963 48.342 C 181.987 50.123 180.663 51.523 178.99 52.543 C 177.317 53.564 175.416 54.074 173.286 54.074 C 171.582 54.074 170.093 53.754 168.819 53.114 C 167.539 52.474 166.503 51.577 165.71 50.424 L 165.71 63.56 Z M 172.06 48.96 C 173.911 48.96 175.444 48.336 176.661 47.087 C 177.878 45.839 178.486 44.226 178.486 42.249 C 178.486 40.272 177.878 38.646 176.661 37.372 C 175.444 36.092 173.911 35.452 172.06 35.452 C 170.172 35.452 168.625 36.083 167.421 37.344 C 166.224 38.611 165.625 40.234 165.625 42.211 C 165.625 44.188 166.224 45.807 167.421 47.068 C 168.625 48.329 170.172 48.96 172.06 48.96 Z M 195.459 53.522 L 189.623 53.522 L 189.623 30.89 L 194.822 30.89 L 195.374 35.139 C 196.191 33.675 197.31 32.509 198.729 31.641 C 200.142 30.779 201.806 30.348 203.72 30.348 L 203.72 36.507 L 202.075 36.507 C 200.801 36.507 199.661 36.704 198.653 37.097 C 197.652 37.49 196.869 38.174 196.305 39.15 C 195.741 40.126 195.459 41.479 195.459 43.209 L 195.459 53.522 Z M 218.278 54.074 C 215.997 54.074 213.972 53.586 212.204 52.61 C 210.443 51.634 209.061 50.265 208.06 48.504 C 207.052 46.742 206.548 44.704 206.548 42.391 C 206.548 40.047 207.043 37.962 208.031 36.137 C 209.02 34.312 210.389 32.889 212.138 31.869 C 213.887 30.855 215.949 30.348 218.326 30.348 C 220.544 30.348 222.505 30.833 224.21 31.802 C 225.914 32.778 227.245 34.109 228.202 35.795 C 229.159 37.487 229.638 39.365 229.638 41.431 C 229.638 41.767 229.631 42.116 229.619 42.477 C 229.599 42.845 229.574 43.225 229.542 43.618 L 212.347 43.618 C 212.467 45.386 213.082 46.77 214.191 47.772 C 215.3 48.779 216.647 49.283 218.231 49.283 C 219.416 49.283 220.411 49.017 221.216 48.484 C 222.027 47.952 222.629 47.258 223.022 46.403 L 228.953 46.403 C 228.529 47.835 227.822 49.137 226.833 50.31 C 225.845 51.476 224.628 52.394 223.183 53.066 C 221.738 53.738 220.103 54.074 218.278 54.074 Z M 218.326 35.091 C 216.894 35.091 215.629 35.494 214.533 36.298 C 213.437 37.103 212.737 38.326 212.432 39.967 L 223.706 39.967 C 223.617 38.478 223.069 37.293 222.062 36.412 C 221.06 35.532 219.815 35.091 218.326 35.091 Z M 243.919 54.074 C 241.91 54.074 240.145 53.744 238.624 53.085 C 237.103 52.432 235.886 51.529 234.974 50.376 C 234.061 49.216 233.513 47.876 233.329 46.355 L 239.223 46.355 C 239.4 47.242 239.895 47.997 240.706 48.618 C 241.511 49.239 242.55 49.549 243.824 49.549 C 245.104 49.549 246.042 49.292 246.637 48.779 C 247.227 48.26 247.521 47.667 247.521 47.002 C 247.521 46.026 247.097 45.363 246.248 45.015 C 245.392 44.666 244.204 44.324 242.683 43.988 C 241.713 43.773 240.725 43.513 239.717 43.209 C 238.716 42.905 237.797 42.518 236.961 42.049 C 236.124 41.574 235.446 40.966 234.926 40.224 C 234.413 39.476 234.156 38.554 234.156 37.458 C 234.156 35.455 234.955 33.77 236.552 32.401 C 238.149 31.032 240.392 30.348 243.282 30.348 C 245.956 30.348 248.092 30.969 249.689 32.211 C 251.286 33.459 252.236 35.18 252.54 37.372 L 247.018 37.372 C 246.688 35.699 245.427 34.863 243.234 34.863 C 242.138 34.863 241.295 35.075 240.706 35.5 C 240.11 35.924 239.812 36.457 239.812 37.097 C 239.812 37.769 240.253 38.301 241.134 38.694 C 242.014 39.087 243.187 39.451 244.651 39.787 C 246.229 40.154 247.68 40.557 249.004 40.994 C 250.329 41.438 251.387 42.094 252.179 42.962 C 252.971 43.83 253.367 45.069 253.367 46.678 C 253.393 48.079 253.025 49.34 252.265 50.462 C 251.504 51.59 250.411 52.474 248.985 53.114 C 247.553 53.754 245.864 54.074 243.919 54.074 Z M 267.873 54.074 C 265.864 54.074 264.099 53.744 262.578 53.085 C 261.057 52.432 259.841 51.529 258.928 50.376 C 258.016 49.216 257.467 47.876 257.284 46.355 L 263.177 46.355 C 263.355 47.242 263.849 47.997 264.66 48.618 C 265.465 49.239 266.504 49.549 267.778 49.549 C 269.058 49.549 269.996 49.292 270.591 48.779 C 271.181 48.26 271.475 47.667 271.475 47.002 C 271.475 46.026 271.051 45.363 270.202 45.015 C 269.346 44.666 268.158 44.324 266.637 43.988 C 265.668 43.773 264.679 43.513 263.671 43.209 C 262.67 42.905 261.751 42.518 260.915 42.049 C 260.078 41.574 259.4 40.966 258.881 40.224 C 258.367 39.476 258.111 38.554 258.111 37.458 C 258.111 35.455 258.909 33.77 260.506 32.401 C 262.103 31.032 264.346 30.348 267.236 30.348 C 269.91 30.348 272.046 30.969 273.643 32.211 C 275.24 33.459 276.19 35.18 276.494 37.372 L 270.972 37.372 C 270.642 35.699 269.381 34.863 267.188 34.863 C 266.092 34.863 265.249 35.075 264.66 35.5 C 264.064 35.924 263.766 36.457 263.766 37.097 C 263.766 37.769 264.207 38.301 265.088 38.694 C 265.969 39.087 267.141 39.451 268.605 39.787 C 270.183 40.154 271.634 40.557 272.958 40.994 C 274.283 41.438 275.341 42.094 276.133 42.962 C 276.925 43.83 277.321 45.069 277.321 46.678 C 277.347 48.079 276.979 49.34 276.219 50.462 C 275.458 51.59 274.365 52.474 272.939 53.114 C 271.507 53.754 269.818 54.074 267.873 54.074 Z"/>
    <g transform="matrix(0.165039, 0, 0, 0.165039, -5.171112, 0.046356)" data-uid="o_f50i86bj4_6">
        <path d="m113.707 512-58.132-120.208c-43.694-90.351-18.098-196.268 55.842-257.579 46.027-38.166 89.94-78.812 130.239-122.984l10.244-11.229 23.821 31.473c29.393 38.834 51.822 80.128 65.073 121.97z"
              fill="#00aa95" transform="matrix(1, 0, 0, 1, 0, 0)" data-uid="o_f50i86bj4_7"/>
        <path d="m468.766 149.938-7.743-38.704c-38.269 90.207-136.426 138.139-192.689 200.383-98.392 108.852-154.627 200.383-154.627 200.383h58.256c258.928 0 334.274-174.759 296.803-362.062z"
              fill="#00cc76" transform="matrix(1, 0, 0, 1, 0, 0)" data-uid="o_f50i86bj4_8"/>
        <path d="m461.022 111.234-14.112 5.649c-34.771 13.919-70.217 25.975-106.117 36.56v.001c-21.412 6.314-42.985 12.104-64.674 17.454-93.258 23.005-162.413 107.214-162.413 207.575v133.527c.001 0 242.122-152.806 347.316-400.766z"
              fill="#a5e887" transform="matrix(1, 0, 0, 1, 0, 0)" data-uid="o_f50i86bj4_9"/>
    </g>
</svg>